<?xml version="1.0" encoding="iso-8859-1"?><!-- Generator: Adobe Illustrator 19.0.0, SVG Export Plug-In . SVG Version: 6.00 Build 0)  -->
<svg style="enable-background:new 0 0 512 512;" id="Layer_1" version="1.1" viewBox="0 0 512 512"
    x="0px" xmlns="http://www.w3.org/2000/svg" y="0px" xml:space="preserve">
<g>
	<g>
		<path d="M434.437,23.025c-53.201,0-98.677,33.65-116.302,80.776c-20.092-3.597-40.926-5.459-62.135-5.459
			s-42.043,1.86-62.135,5.459C176.24,56.672,130.763,23.025,77.563,23.025H54.288v118.43c16.911-6.34,35.21-9.816,54.307-9.816
			c68.641,0,127.004,44.806,147.405,106.704c20.401-61.899,78.764-106.705,147.405-106.705c19.097,0,37.397,3.476,54.307,9.816
			V23.025H434.437z" />
	</g>
</g>
    <g>
	<g>
		<path d="M403.405,178.187c-59.89,0-108.614,48.724-108.614,108.614h-77.581c0-59.89-48.724-108.614-108.614-108.614
			C48.955,178.187,0.403,226.511,0,286.057c1.611,150.305,241.202,199.96,251.435,202.006l4.565,0.912l4.563-0.912
			c10.233-2.045,249.826-51.7,251.437-202.006C511.595,226.51,463.043,178.187,403.405,178.187z M124.112,310.076
			c-12.854,0-23.274-10.419-23.274-23.274s10.421-23.274,23.274-23.274c12.854,0,23.274,10.419,23.274,23.274
			S136.965,310.076,124.112,310.076z M256,387.657c0,0-31.033-15.516-31.033-31.033c0-8.57,6.947-15.516,15.516-15.516H256h15.516
			c8.57,0,15.516,6.947,15.516,15.516C287.033,372.141,256,387.657,256,387.657z M387.888,310.076
			c-12.854,0-23.274-10.419-23.274-23.274s10.421-23.274,23.274-23.274c12.854,0,23.274,10.419,23.274,23.274
			S400.742,310.076,387.888,310.076z" />
	</g>
</g>
    <g>
</g>
    <g>
</g>
    <g>
</g>
    <g>
</g>
    <g>
</g>
    <g>
</g>
    <g>
</g>
    <g>
</g>
    <g>
</g>
    <g>
</g>
    <g>
</g>
    <g>
</g>
    <g>
</g>
    <g>
</g>
    <g>
</g>
</svg>
